<svg id="Layer_2" data-name="Layer 2" xmlns="http://www.w3.org/2000/svg" width="325" height="200" viewBox="0 0 325 200">
  <defs>
    <style>
      .cls-1, .cls-11, .cls-13, .cls-15, .cls-16, .cls-17, .cls-18, .cls-2, .cls-23, .cls-25, .cls-26, .cls-28 {
        fill: none;
      }

      .cls-1, .cls-18, .cls-2 {
        stroke: #dbdbde;
      }

      .cls-1, .cls-11, .cls-15, .cls-16, .cls-2, .cls-23, .cls-28 {
        stroke-linecap: round;
      }

      .cls-1, .cls-18, .cls-25, .cls-26, .cls-28 {
        stroke-linejoin: round;
      }

      .cls-1, .cls-11, .cls-13, .cls-16, .cls-17, .cls-18, .cls-2, .cls-23, .cls-25, .cls-26, .cls-28 {
        stroke-width: 1.5px;
      }

      .cls-11, .cls-13, .cls-15, .cls-16, .cls-17, .cls-2, .cls-23 {
        stroke-miterlimit: 10;
      }

      .cls-3 {
        fill: #c9c8cd;
      }

      .cls-4 {
        fill: #ffc07f;
      }

      .cls-5 {
        fill: #b6b5bc;
      }

      .cls-6 {
        fill: #eeeeef;
      }

      .cls-7 {
        fill: #fff;
      }

      .cls-8 {
        fill: #d1d1d4;
      }

      .cls-9 {
        fill: #dbdbde;
      }

      .cls-10 {
        fill: #f43939;
      }

      .cls-11 {
        stroke: #2b273c;
      }

      .cls-12 {
        fill: #f87c7c;
      }

      .cls-13 {
        stroke: #f89999;
      }

      .cls-14 {
        fill: #7e7b88;
      }

      .cls-15 {
        stroke: #7e7b88;
      }

      .cls-16, .cls-17 {
        stroke: #000;
      }

      .cls-19 {
        fill: #f88888;
      }

      .cls-20 {
        fill: #f9cdcd;
      }

      .cls-21 {
        fill: #fadede;
      }

      .cls-22 {
        fill: #f9bcbc;
      }

      .cls-23 {
        stroke: #f57676;
      }

      .cls-24 {
        fill: #a3a1aa;
      }

      .cls-25 {
        stroke: #fff;
      }

      .cls-26 {
        stroke: #c9c8cd;
      }

      .cls-27 {
        fill: #918e99;
      }

      .cls-28 {
        stroke: #918e99;
      }
    </style>
  </defs>
  <polyline class="cls-1" points="77.58 18.406 53.299 6.924 29.019 18.406"/>
  <path class="cls-2" d="M163.6839,157.55431c1.56415-7.73168,9.298-14.05759,17.18628-14.05759h15.09756c7.88831,0,13.06261,6.32591,11.49845,14.05759l-12.987,64.19554H150.69687Z"/>
  <line class="cls-2" x1="203.08247" y1="145.61433" x2="187.67992" y2="221.74985"/>
  <line class="cls-2" x1="195.5954" y1="143.49673" x2="179.76445" y2="221.74985"/>
  <line class="cls-2" x1="187.67992" y1="143.49673" x2="171.84897" y2="221.74985"/>
  <line class="cls-2" x1="179.76445" y1="143.49673" x2="163.9335" y2="221.74985"/>
  <line class="cls-2" x1="171.21156" y1="146.64749" x2="156.01804" y2="221.74985"/>
  <path class="cls-2" d="M201.07376,189.15244h-16.223a13.11125,13.11125,0,0,0-12.85092,10.51145l-2.44448,12.0831"/>
  <path class="cls-2" d="M157.29146,189.15244h-16.223a13.11125,13.11125,0,0,0-12.85092,10.51145l-2.44445,12.0831"/>
  <path class="cls-2" d="M61.46455,157.55431c-1.56415-7.73168-9.298-14.05759-17.18627-14.05759H29.18072c-7.8883,0-13.06261,6.32591-11.49846,14.05759l12.987,64.19554H74.45159Z"/>
  <line class="cls-2" x1="22.06598" y1="145.61433" x2="37.46853" y2="221.74985"/>
  <line class="cls-2" x1="29.55306" y1="143.49673" x2="45.38401" y2="221.74985"/>
  <line class="cls-2" x1="37.46853" y1="143.49673" x2="53.29948" y2="221.74985"/>
  <line class="cls-2" x1="45.38401" y1="143.49673" x2="61.21496" y2="221.74985"/>
  <line class="cls-2" x1="53.93689" y1="146.64749" x2="69.13043" y2="221.74985"/>
  <line class="cls-2" x1="77.60428" y1="161.53329" x2="77.60428" y2="175.44887"/>
  <path class="cls-1" d="M72.77941,148.59627h9.64974l.74734,7.60759a4.85483,4.85483,0,0,1-1.16845,3.66067h0a4.85476,4.85476,0,0,1-3.663,1.66876H76.86362a4.85477,4.85477,0,0,1-3.6631-1.66876h0a4.85487,4.85487,0,0,1-1.16845-3.66067Z"/>
  <path class="cls-3" d="M76.96368,177.20535v2.86347h7.59719a19.24018,19.24018,0,0,1,19.10737,16.9834l2.91706,24.69763h6.50084l2.91706-24.69763a19.24018,19.24018,0,0,1,19.10737-16.9834h7.59719v-2.86347Z"/>
  <path class="cls-4" d="M180.57657,93.20938V79.64258a9.22633,9.22633,0,0,1,2.714-6.53565l4.453-4.43719a6.85912,6.85912,0,0,1,4.84153-2.00039h3.2076v26.54Z"/>
  <path class="cls-4" d="M182.52634,81.92428V73.07985a5.53512,5.53512,0,0,1,1.62121-3.91395l3.67736-3.67737a5.53518,5.53518,0,0,1,3.914-1.62121h4.05381v18.057Z"/>
  <rect class="cls-5" x="193.00879" y="21.1062" width="103.71796" height="89.13824"/>
  <rect class="cls-6" x="200.20074" y="28.29816" width="89.33405" height="74.75433"/>
  <g>
    <circle class="cls-7" cx="216.1377" cy="39.63954" r="8.02739"/>
    <circle class="cls-8" cx="216.1377" cy="36.85938" r="2.64726"/>
    <path class="cls-8" d="M216.1377,47.66693a8.0018,8.0018,0,0,0,5.67166-2.34708l-.1052-.82673a3.43607,3.43607,0,0,0-2.75062-2.96481,15.5829,15.5829,0,0,0-5.63167,0,3.43608,3.43608,0,0,0-2.75063,2.96481l-.10521.82673A8.00183,8.00183,0,0,0,216.1377,47.66693Z"/>
    <rect class="cls-9" x="230.2822" y="36.96285" width="32.22318" height="5.35338" rx="2.67669"/>
    <path class="cls-10" d="M214.6844,52.48633l1.30846,3.13033,3.38145.27709a.68145.68145,0,0,1,.38857,1.1959l-2.57279,2.21173.78139,3.30158a.68142.68142,0,0,1-1.01727.73911l-2.89853-1.7634-2.89853,1.7634a.68144.68144,0,0,1-1.01729-.73911l.78139-3.30158-2.57279-2.21173a.68144.68144,0,0,1,.38857-1.1959l3.38145-.27709,1.30846-3.13033a.68143.68143,0,0,1,1.25746,0Z"/>
    <path class="cls-10" d="M229.12973,52.48633l1.30846,3.13033,3.38145.27709a.68145.68145,0,0,1,.38857,1.1959l-2.57279,2.21173.78139,3.30158a.68144.68144,0,0,1-1.01729.73911l-2.89853-1.7634-2.89851,1.7634a.68144.68144,0,0,1-1.01729-.73911l.78139-3.30158-2.57279-2.21173a.68143.68143,0,0,1,.38857-1.1959l3.38145-.27709,1.30847-3.13033a.68143.68143,0,0,1,1.25745,0Z"/>
    <path class="cls-10" d="M243.57507,52.48633l1.30846,3.13033,3.38145.27709a.68145.68145,0,0,1,.38857,1.1959l-2.57279,2.21173.78139,3.30158a.68144.68144,0,0,1-1.01729.73911l-2.89853-1.7634-2.89852,1.7634a.68143.68143,0,0,1-1.01728-.73911l.78139-3.30158-2.57278-2.21173a.68143.68143,0,0,1,.38856-1.1959l3.38146-.27709,1.30845-3.13033a.68143.68143,0,0,1,1.25746,0Z"/>
    <path class="cls-10" d="M258.02042,52.48633l1.30847,3.13033,3.38147.27709a.68145.68145,0,0,1,.38855,1.1959l-2.57279,2.21173.78141,3.30158a.68144.68144,0,0,1-1.01731.73911l-2.89853-1.7634-2.89853,1.7634a.68143.68143,0,0,1-1.01728-.73911l.7814-3.30158-2.57279-2.21173a.68143.68143,0,0,1,.38857-1.1959l3.38145-.27709,1.30846-3.13033a.68143.68143,0,0,1,1.25745,0Z"/>
    <path class="cls-10" d="M272.46576,52.48633l1.30847,3.13033,3.38144.27709a.68145.68145,0,0,1,.38858,1.1959l-2.57278,2.21173.7814,3.30158a.68143.68143,0,0,1-1.01727.73911l-2.89853-1.7634-2.89853,1.7634a.68145.68145,0,0,1-1.01731-.73911l.78141-3.30158-2.57279-2.21173a.68143.68143,0,0,1,.38858-1.1959l3.38147-.27709,1.30847-3.13033a.68144.68144,0,0,1,1.25739,0Z"/>
    <rect class="cls-7" x="208.11031" y="70.53457" width="26.33607" height="26.33608" rx="3.35825"/>
    <rect class="cls-9" x="221.70984" y="75.73718" width="5.77027" height="5.77026" transform="translate(10.18798 181.84057) rotate(-45)"/>
    <path class="cls-11" d="M221.25951,78.13748a9.78758,9.78758,0,0,0-1.29792-5.10148"/>
    <circle class="cls-12" cx="221.25951" cy="79.77004" r="2.10695"/>
    <rect class="cls-10" x="216.82953" y="81.03249" width="13.69498" height="11.21774" rx="0.9057"/>
    <line class="cls-13" x1="230.52451" y1="90.06442" x2="216.82953" y2="90.06442"/>
    <path class="cls-12" d="M216.82953,87.20429a4.88249,4.88249,0,0,0-4.88251,4.88246h9.765a4.88243,4.88243,0,0,0-4.8824-4.88246Z"/>
    <path class="cls-9" d="M210.564,91.23981h21.4109a.55974.55974,0,0,1,.45111.89108l-.85272,1.16092a1.77118,1.77118,0,0,1-1.42749.72267H212.3931a1.77118,1.77118,0,0,1-1.42749-.72267l-.85273-1.16092a.55974.55974,0,0,1,.45112-.89108Z"/>
    <line class="cls-13" x1="230.52451" y1="83.21831" x2="216.82953" y2="83.21831"/>
    <line class="cls-13" x1="230.52451" y1="86.64136" x2="216.82953" y2="86.64136"/>
    <rect class="cls-9" x="239.13834" y="70.53457" width="28.71078" height="5.00279" rx="2.50139"/>
    <rect class="cls-9" x="239.13834" y="91.86786" width="36.42102" height="5.00279" rx="2.50139"/>
    <rect class="cls-8" x="239.13834" y="81.20121" width="46.01767" height="5.00279" rx="2.50139"/>
  </g>
  <path class="cls-10" d="M313.70575,211.70438c-2.62344-39.316-7.87024-65.14307-14.548-87.56119l-63.67707,11.686c.954,31.48084,5.72379,36.96613,13.22649,55.8069l-4.72048,20.06827Z"/>
  <polygon class="cls-4" points="279.781 127.91 260.163 132.083 254.781 106.781 274.331 102.622 279.781 127.91"/>
  <path class="cls-10" d="M235.70328,124.64c24.60751-5.646,49.355-10.397,61.02588-12.51586l6.50317,26.96285L236.354,150.453Z"/>
  <path class="cls-9" d="M303.37653,134.43974q-5.19361.9093-11.05506,2.01377l-3.95941-22.77192c2.89734-.54451,5.68549-1.17229,8.3671-1.64492A219.94109,219.94109,0,0,0,293.051,81.51734l-.54455-2.98983,22.73682-4.20212.55484,2.9692c1.82876,9.90435,4.1199,22.2334,5.48638,32.90832A21.7698,21.7698,0,0,1,303.37653,134.43974Z"/>
  <path class="cls-14" d="M248.70721,191.63605v.00006l-4.72047,20.06827h69.719c-.672-10.07123-1.51724-19.25229-2.51349-27.72269h-43.911Z"/>
  <rect class="cls-4" x="180.57657" y="93.20938" width="23.12775" height="3.66339"/>
  <path class="cls-4" d="M199.23209,76.83939V71.95048a3.30764,3.30764,0,0,0-3.01468-3.36181,3.18619,3.18619,0,0,0-3.3528,3.01037q-.0046.08549-.00461.17112V93.20937h10.84436V92.1596a18.628,18.628,0,0,0-2.95169-10.05147A9.75881,9.75881,0,0,1,199.23209,76.83939Z"/>
  <path class="cls-4" d="M302.99689,63.55584V52.97552a3.89859,3.89859,0,0,0-1.07807-2.6914l-1.13318-1.18756a3.8986,3.8986,0,0,0-2.82052-1.20719h-1.23837V62.18851a1.36732,1.36732,0,0,1-1.36731,1.36733h0a1.36734,1.36734,0,0,1-1.26325-.84408L291.35544,56.095a3.30763,3.30763,0,0,0-4.07184-1.9522,3.18628,3.18628,0,0,0-1.94543,4.06447q.02843.08067.06118.15974l3.13431,7.56674a9.7513,9.7513,0,0,1,.65479,3.3517,8.01831,8.01831,0,0,0,2.64883,5.64258l.66541,3.60248,14.84127-2.7414V63.55584Z"/>
  <path class="cls-4" d="M315.2457,74.3295l-2.67887-14.50261a3.74313,3.74313,0,0,0-4.85782-2.87341l-.365.12091-.85964-1.53473a4.19421,4.19421,0,0,0-3.65928-2.14457h-2.96322v23.776Z"/>
  <path class="cls-4" d="M265.58868,72.43166l-2.933-.17986a14.0815,14.0815,0,0,0-14.917,13.19318l-.00346.05846-1.06986,18.93675a12.09737,12.09737,0,0,0,11.33719,12.76493l19.01886,1.16632,1.76392-31.08123A14.08151,14.08151,0,0,0,265.58868,72.43166Z"/>
  <circle cx="250.56058" cy="93.21933" r="0.94792"/>
  <path d="M281.56125,98.71429c-.03024-6.46962-.1716-10.59848-.77161-13.99755a14.99444,14.99444,0,0,0-13.92453-12.20681l-4.20941-.25814L258.08786,96.231c1.90619,6.88077,5.58679,9.78681,5.58679,25.26291,5.79242,0,18.136-.88663,22.32746-5.48114l-.07224-.12813A35.36723,35.36723,0,0,1,281.56125,98.71429Z"/>
  <path class="cls-4" d="M247.2791,93.71722l-.05179.844a8.38116,8.38116,0,0,1-1.915,4.78671,6.68168,6.68168,0,0,0-1.28887,2.10269.88593.88593,0,0,0,.80788,1.1249l3.87585.23768Z"/>
  <path d="M256.4892,79.334h0a9.12734,9.12734,0,0,0-3.62958-3.89151,14.01436,14.01436,0,0,1,9.796-3.19066l2.933.17987a14.08147,14.08147,0,0,1,13.1966,14.85851l-1.10462,19.48655-6.4465-.39533a2.39973,2.39973,0,0,1-2.13324-1.6471h0a12.3888,12.3888,0,0,0-11.013-8.50328l-1.90619-6.88073A16.9032,16.9032,0,0,1,256.4892,79.334Z"/>
  <line class="cls-15" x1="245.67392" y1="91.43718" x2="258.90601" y2="92.43307"/>
  <ellipse class="cls-4" cx="259.85736" cy="96.9178" rx="5.73425" ry="4.20142" transform="translate(99.3773 323.11474) rotate(-75.0992)"/>
  <line class="cls-16" x1="257.39288" y1="96.4939" x2="260.41913" y2="93.19222"/>
  <line class="cls-16" x1="249.45476" y1="88.96935" x2="252.30334" y2="89.22443"/>
  <path class="cls-16" d="M249.21211,105.7508a5.019,5.019,0,0,0,3.47692-1.97951"/>
  <line class="cls-15" x1="245.64699" y1="89.09689" x2="245.70085" y2="96.9178"/>
  <path d="M262.65567,72.2518a28.21027,28.21027,0,0,0-10.1804,1.70052,10.55018,10.55018,0,0,0-6.91571,7.78113c-.0799.37626-.11352.60037-.11352.60037,3.61521.49524,8.17135,1.48571,8.17135,1.48571Z"/>
  <path d="M311.06363,182.907H279.1937c-11.46317.014-16.26917-.004-31.70858,4.806l-.33285.10334c.5048,1.21731,1.02215,2.48182,1.55493,3.81971,14.84141-4.62239,19.43971-4.61035,30.48549-4.61938H311.539Q311.30755,184.9327,311.06363,182.907Z"/>
  <line class="cls-16" x1="237.01563" y1="148.66437" x2="246.59453" y2="146.53091"/>
  <line class="cls-16" x1="297.39023" y1="111.29484" x2="301.36316" y2="110.58857"/>
  <path class="cls-9" d="M249.42484,133.064h0a11.569,11.569,0,0,0-13.72156-8.424l-.00752-.01385q-12.27292,2.74278-26.11809,5.95358a.48543.48543,0,0,1-.54958-.21083c-4.20312-10.78949-5.32379-26.13163-5.32379-33.49616H180.57655c0,2.47417.19358,24.67052,6.90047,41.89054a23.6911,23.6911,0,0,0,22.0286,14.95278,23.4108,23.4108,0,0,0,5.29582-.60658q13.81242-3.202,26.21377-5.96341a11.56137,11.56137,0,0,0,8.42757-14.011Z"/>
  <path class="cls-10" d="M293.84048,112.64985c5.76066,7.28444,6.44462,13.99872,8.32245,22.00332l-15.46862,8.7951V113.99566Z"/>
  <line class="cls-16" x1="209.02809" y1="130.36893" x2="203.70432" y2="133.54309"/>
  <line class="cls-16" x1="207.92018" y1="134.95454" x2="209.02809" y2="130.36893"/>
  <path class="cls-5" d="M203.90227,102.94544c-.13658-2.32945-.198-4.41132-.198-6.07266H180.57655c0,.73175.01844,3.19777.21584,6.741Z"/>
  <path class="cls-5" d="M315.7981,77.29459l-.554-2.96481L292.50677,78.5297l.54419,2.98764c.19684,1.05746.38953,2.13367.579,3.22016l22.7197-4.45289C316.16324,79.27293,315.977,78.26369,315.7981,77.29459Z"/>
  <line class="cls-17" x1="292.50641" y1="78.52751" x2="315.24323" y2="74.32539"/>
  <line class="cls-17" x1="180.57657" y1="96.87277" x2="203.70432" y2="96.87277"/>
  <line class="cls-16" x1="241.58189" y1="147.82228" x2="246.64528" y2="154.29659"/>
  <line class="cls-16" x1="192.14044" y1="74.98352" x2="192.14044" y2="84.94165"/>
  <line class="cls-16" x1="192.14044" y1="79.96259" x2="189.45274" y2="81.92428"/>
  <line class="cls-16" x1="303.11038" y1="54.28752" x2="303.43121" y2="59.36747"/>
  <path class="cls-3" d="M33.78951,174.34187a1.28959,1.28959,0,0,0-.57317,2.44611,34.81969,34.81969,0,0,0,14.75513,3.28082H171.7a34.81977,34.81977,0,0,0,14.75514-3.28082,1.28959,1.28959,0,0,0-.57318-2.44611Z"/>
  <path class="cls-9" d="M141.84152,154.11917v10.195A10.03532,10.03532,0,0,1,131.814,174.34187H100.02159v-20.2227Z"/>
  <path class="cls-16" d="M126.28123,139.47046c3.11339,14.44423,3.05927,20.59991,2.48389,29.726"/>
  <path class="cls-18" d="M131.733,153.37692v-3.75883h-6.10726v3.75883a21.20761,21.20761,0,0,1-2.17408,9.35346h0a13.17465,13.17465,0,0,0-.40245,10.71812h11.26031a13.17457,13.17457,0,0,0-.40245-10.71812h0A21.20773,21.20773,0,0,1,131.733,153.37692Z"/>
  <path class="cls-10" d="M130.2151,137.59138a4.69361,4.69361,0,0,1-9.0666,2.43241l-.003-.01126-1.71231-6.41431,9.0696-2.42114Z"/>
  <path class="cls-5" d="M135.13078,141.96455a6.45514,6.45514,0,0,1-7.17115,5.64907,6.45512,6.45512,0,0,1,7.17114-5.64907Z"/>
  <polygon points="129.794 136.012 119.683 134.542 119.432 133.598 121.595 133.012 121.607 133.012 124.284 133.406 126.698 133.753 129.292 134.135 129.794 136.012"/>
  <polygon points="128.754 132.104 126.698 133.753 125.109 135.044 123.985 133.645 124.284 133.406 126.34 131.745 128.503 131.171 128.754 132.104"/>
  <path class="cls-7" d="M134.70622,162.33015a20.22359,20.22359,0,0,1-2.05569-8.211h-1.7928a22.09629,22.09629,0,0,0,2.247,9.01176,12.27734,12.27734,0,0,1,.58563,9.41815H123.67459a12.27878,12.27878,0,0,1,.58563-9.41815,22.08274,22.08274,0,0,0,2.23516-9.01176h-1.7928a20.22365,20.22365,0,0,1-2.05584,8.211,14.10392,14.10392,0,0,0-.526,11.199c.03589.08368.05982.16728.09571.251a.883.883,0,0,0,.83658.56178h11.25881a.879.879,0,0,0,.82476-.56178,8.90787,8.90787,0,0,0,.33468-.94419A14.00668,14.00668,0,0,0,134.70622,162.33015Z"/>
  <path class="cls-19" d="M94.13876,131.57162v-8.39956a.41434.41434,0,0,1,.41434-.41433h5.27782a.41433.41433,0,0,1,.41433.41433v8.3995a9.97582,9.97582,0,0,0,3.02879,7.31162,8.84786,8.84786,0,0,1,2.81371,6.48132v28.97739H88.29636V145.3645A8.84791,8.84791,0,0,1,91.11,138.88313,9.97573,9.97573,0,0,0,94.13876,131.57162Z"/>
  <rect class="cls-10" x="97.41971" y="145.15048" width="8.66804" height="20.10777"/>
  <path class="cls-2" d="M24.0747,189.15244h16.223a13.11124,13.11124,0,0,1,12.85091,10.51145l2.44447,12.0831"/>
  <path class="cls-2" d="M67.857,189.15244H84.08a13.11124,13.11124,0,0,1,12.8509,10.51145l2.44447,12.0831"/>
  <path class="cls-6" d="M182.52634,6.92445H90.46826V58.61687h92.05808Z"/>
  <path class="cls-20" d="M167.70012,66.60177H113.45879v54.24132h54.24133Z"/>
  <rect class="cls-21" x="21.67401" y="16.42001" width="63.25095" height="68.61834"/>
  <rect class="cls-22" x="21.67401" y="16.42001" width="63.25095" height="57.01831"/>
  <path class="cls-6" d="M60.84222,92.33783H7.826v34.47956H60.84222Z"/>
  <polyline class="cls-7" points="162.7 71.602 162.7 115.843 118.459 115.843 118.459 71.602 162.7 71.602"/>
  <rect class="cls-6" x="130.67156" y="81.27141" width="19.62468" height="11.11479" rx="5.55739" transform="translate(-10.0181 18.82795) rotate(-7.40421)"/>
  <polyline class="cls-7" points="172.526 16.924 172.526 48.617 100.468 48.617 100.468 16.924 172.526 16.924"/>
  <polyline class="cls-3" points="172.526 45.763 172.526 48.617 100.468 48.617 100.468 45.763 172.526 45.763"/>
  <polyline class="cls-7" points="57.478 95.702 57.478 123.453 11.191 123.453 11.191 95.702 57.478 95.702"/>
  <path class="cls-5" d="M121.84586,111.44559h37.46719a4.3975,4.3975,0,0,1-4.39749,4.39749h-28.6722a4.39749,4.39749,0,0,1-4.39749-4.39749h0Z"/>
  <rect class="cls-8" x="125.41253" y="89.43303" width="30.14275" height="22.01255"/>
  <rect class="cls-19" x="125.41253" y="92.10781" width="16.663" height="16.663"/>
  <rect class="cls-19" x="125.4164" y="92.10513" width="16.66109" height="16.66115"/>
  <circle class="cls-8" cx="143.77353" cy="89.43303" r="2.8141"/>
  <circle class="cls-8" cx="149.40173" cy="89.43303" r="2.8141"/>
  <circle class="cls-8" cx="155.02992" cy="89.43303" r="2.8141"/>
  <path class="cls-10" d="M130.82822,101.25949a3.18665,3.18665,0,0,1-5.41182,2.28044V98.99a3.15166,3.15166,0,0,1,2.22583-.91649A3.18975,3.18975,0,0,1,130.82822,101.25949Z"/>
  <circle class="cls-10" cx="137.77107" cy="104.14085" r="3.18835"/>
  <path class="cls-10" d="M136.92751,94.37464a3.186,3.186,0,1,1-5.4119-2.26951h4.46265A3.17316,3.17316,0,0,1,136.92751,94.37464Z"/>
  <path class="cls-6" d="M138.39636,77.42629l5.88153,1.54365a2.96209,2.96209,0,0,1,2.1131,3.617v0A2.96209,2.96209,0,0,1,142.774,84.7l-5.88154-1.54366a2.96208,2.96208,0,0,1-2.11309-3.617v0A2.96208,2.96208,0,0,1,138.39636,77.42629Z"/>
  <line class="cls-2" x1="135.54826" y1="81.86608" x2="139.40414" y2="82.9897"/>
  <path class="cls-7" d="M28.055,70.25418H64.407v.61426a6.64842,6.64842,0,0,1-6.64841,6.64841H34.70336A6.64842,6.64842,0,0,1,28.055,70.86844v-.61426Z"/>
  <path class="cls-3" d="M38.86761,69.92365h-10.726a6.05864,6.05864,0,0,0,10.726,0Z"/>
  <path class="cls-3" d="M51.63728,69.92365h-10.726a6.05864,6.05864,0,0,0,10.726,0Z"/>
  <path class="cls-3" d="M64.407,69.92365H53.681a6.05864,6.05864,0,0,0,10.726,0Z"/>
  <path class="cls-19" d="M67.25054,65.42677a3.50757,3.50757,0,0,1-2.92932,5.44168H28.13874a3.50749,3.50749,0,0,1-2.92924-5.44168,3.51587,3.51587,0,0,1,2.92925-5.45257H64.32122a3.5,3.5,0,0,1,2.47947,1.03121A3.46159,3.46159,0,0,1,67.832,63.48488,3.52144,3.52144,0,0,1,67.25054,65.42677Z"/>
  <path class="cls-7" d="M46.23084,56.88435,28.14157,59.9742,43.9111,62.66781a13.77738,13.77738,0,0,0,4.63948,0L64.32033,59.9742Z"/>
  <path class="cls-19" d="M67.25054,54.53254a3.50756,3.50756,0,0,1-2.92932,5.44166H28.13874a3.50748,3.50748,0,0,1-2.92924-5.44166A3.51587,3.51587,0,0,1,28.13874,49.08H64.32122a3.5,3.5,0,0,1,2.47947,1.03121A3.46168,3.46168,0,0,1,67.832,52.59064,3.5215,3.5215,0,0,1,67.25054,54.53254Z"/>
  <path class="cls-7" d="M46.23084,45.99011,28.14157,49.08,43.9111,51.77357a13.77738,13.77738,0,0,0,4.63948,0L64.32033,49.08Z"/>
  <rect class="cls-10" x="28.14157" y="45.89034" width="36.17876" height="3.08985"/>
  <path class="cls-7" d="M64.64722,46.76011H27.81468a1.45711,1.45711,0,0,1-1.4571-1.4571h0A8.72636,8.72636,0,0,1,35.084,36.57664H57.3779A8.72637,8.72637,0,0,1,66.10427,45.303h0a1.45711,1.45711,0,0,1-1.4571,1.4571Z"/>
  <path class="cls-23" d="M33.19878,54.08015a3.659,3.659,0,0,1,4.6413,2.288l0,0"/>
  <path class="cls-23" d="M62.32562,51.97026a3.659,3.659,0,0,1-4.91352,1.62293l0,0"/>
  <path class="cls-23" d="M47.76357,54.028a3.659,3.659,0,0,1,5.0487,1.13453l0,0"/>
  <path class="cls-23" d="M41.03669,67.04694a3.659,3.659,0,0,1-4.9356-1.55449h0"/>
  <path class="cls-23" d="M28.79587,65.49244a3.659,3.659,0,0,1,4.09862-3.15877h0"/>
  <path class="cls-23" d="M52.11523,64.3614a3.659,3.659,0,0,1,4.64735,2.27568h0"/>
  <line class="cls-1" x1="33.59308" y1="39.01439" x2="31.74364" y2="40.68485"/>
  <line class="cls-1" x1="39.61185" y1="40.83964" x2="39.15964" y2="43.29043"/>
  <line class="cls-1" x1="46.94688" y1="38.13664" x2="48.58025" y2="40.01892"/>
  <line class="cls-1" x1="40.5211" y1="36.3172" x2="38.25039" y2="37.3442"/>
  <line class="cls-1" x1="35.4848" y1="43.99797" x2="33.18346" y2="43.04158"/>
  <line class="cls-1" x1="47.24755" y1="43.48618" x2="44.7563" y2="43.55337"/>
  <line class="cls-1" x1="59.44575" y1="39.28977" x2="58.64211" y2="41.6488"/>
  <line class="cls-1" x1="55.03203" y1="42.74214" x2="52.9399" y2="41.38794"/>
  <line class="cls-1" x1="55.39438" y1="38.47882" x2="54.52419" y2="36.14352"/>
  <path class="cls-24" d="M82.15753,63.06232a16.93878,16.93878,0,0,1-.2525-9.40068,13.88314,13.88314,0,0,0,.40984-3.15527,13.26005,13.26005,0,0,0-1.58276-6.631,15.39089,15.39089,0,0,1-2.01966-6.94247l-.064-1.82243h-3.908l-.064,1.82243a15.3909,15.3909,0,0,1-2.01967,6.94247,13.2605,13.2605,0,0,0-1.58276,6.631,13.88314,13.88314,0,0,0,.40984,3.15527,16.93869,16.93869,0,0,1-.2525,9.40068,30.831,30.831,0,0,0-1.44735,10.376H83.60489A30.83105,30.83105,0,0,0,82.15753,63.06232Z"/>
  <path class="cls-25" d="M76.51433,34.74513l-.17156-2.5539a3.92888,3.92888,0,0,0-2.89747-3.53015l-6.316-1.70257"/>
  <line class="cls-26" x1="78.64564" y1="66.47246" x2="76.51433" y2="34.74513"/>
  <path class="cls-5" d="M70.896,64.16135H82.49286c-.107-.3783-.21869-.74555-.33533-1.09906a16.93885,16.93885,0,0,1-.2525-9.4007,13.88327,13.88327,0,0,0,.40985-3.15521,14.07145,14.07145,0,0,0-.35083-3.36334H71.4248a14.07043,14.07043,0,0,0-.35083,3.36334,13.88272,13.88272,0,0,0,.40986,3.15521,16.93913,16.93913,0,0,1-.25251,9.4007C71.11469,63.4158,71.003,63.78305,70.896,64.16135Z"/>
  <path class="cls-27" d="M74.97046,34.13272H78.4184a.61242.61242,0,0,1,.61241.61241h0a.61242.61242,0,0,1-.61241.61241H74.97046a.61241.61241,0,0,1-.61241-.61241h0A.61241.61241,0,0,1,74.97046,34.13272Z"/>
  <g>
    <path class="cls-24" d="M159.348,45.76257a10.84969,10.84969,0,0,0,0-21.69938h-7.4679V45.76257Z"/>
    <circle class="cls-6" cx="151.88008" cy="34.91288" r="9.82065"/>
    <path class="cls-10" d="M156.29869,34.91288c0-.89446.67671-1.979.25879-2.7012-.43109-.745-1.72316-.69539-2.4682-1.12644-.7222-.41783-1.31484-1.57289-2.2092-1.57289-.89447,0-1.48717,1.1551-2.20943,1.573-.745.43109-2.03707.38154-2.46812,1.12659-.41783.72219.25894,1.80656.25894,2.70092,0,.89446-.6767,1.97895-.25877,2.7012.43109.745,1.72316.69539,2.4682,1.12644.72218.41783,1.31483,1.57289,2.2092,1.57289.89445,0,1.48716-1.1551,2.20942-1.573.745-.43109,2.0371-.38153,2.46814-1.12659C156.97546,36.89161,156.29869,35.80724,156.29869,34.91288Z"/>
    <path class="cls-24" d="M151.8801,25.65354a9.25935,9.25935,0,1,1-9.25936,9.25934h0a9.26983,9.26983,0,0,1,9.25936-9.25934m0-1.59035A10.8497,10.8497,0,1,0,162.72978,34.9129v0A10.84969,10.84969,0,0,0,151.8801,24.06319Z"/>
    <path class="cls-24" d="M140.23125,45.76257a10.84969,10.84969,0,0,0,0-21.69938h-7.4679V45.76257Z"/>
    <circle class="cls-6" cx="132.76335" cy="34.91288" r="9.82065"/>
    <path class="cls-10" d="M137.182,34.91288c0-.89446.67669-1.979.25879-2.7012-.43111-.745-1.72316-.69539-2.46822-1.12644-.72218-.41783-1.31483-1.57289-2.20918-1.57289-.89447,0-1.48719,1.1551-2.20943,1.573-.745.43109-2.03708.38154-2.46812,1.12659-.41784.72219.25894,1.80656.25894,2.70092,0,.89446-.6767,1.97895-.25878,2.7012.4311.745,1.72315.69539,2.4682,1.12644.72219.41783,1.31484,1.57289,2.2092,1.57289.89446,0,1.48717-1.1551,2.20943-1.573.745-.43109,2.03709-.38153,2.46814-1.12659C137.85873,36.89161,137.182,35.80724,137.182,34.91288Z"/>
    <path class="cls-24" d="M132.76334,25.65354A9.25935,9.25935,0,1,1,123.504,34.9129v0a9.26983,9.26983,0,0,1,9.25934-9.25934m0-1.59035A10.8497,10.8497,0,1,0,143.613,34.91292v0a10.84969,10.84969,0,0,0-10.84969-10.84969Z"/>
    <path class="cls-24" d="M121.11452,45.76257a10.84969,10.84969,0,0,0,0-21.69938h-7.46791V45.76257Z"/>
    <circle class="cls-6" cx="113.64661" cy="34.91288" r="9.72666"/>
    <path class="cls-10" d="M118.06523,34.91288c0-.89446.6767-1.979.25878-2.7012-.43109-.745-1.72315-.69539-2.4682-1.12644-.72219-.41783-1.31484-1.57289-2.2092-1.57289-.89446,0-1.48716,1.1551-2.20942,1.573-.745.43109-2.03708.38154-2.46813,1.12659-.41783.72219.25894,1.80656.25894,2.70092,0,.89446-.67669,1.97895-.25878,2.7012.43109.745,1.72316.69539,2.4682,1.12644.72219.41783,1.31483,1.57289,2.20919,1.57289.89447,0,1.48719-1.1551,2.20943-1.573.745-.43109,2.03708-.38153,2.46813-1.12659C118.742,36.89161,118.06523,35.80724,118.06523,34.91288Z"/>
    <path class="cls-24" d="M113.64661,25.65354a9.25935,9.25935,0,1,1-9.25934,9.25936v0a9.26983,9.26983,0,0,1,9.25934-9.25934m0-1.59035A10.8497,10.8497,0,1,0,124.4963,34.9129v0a10.84969,10.84969,0,0,0-10.84969-10.84969Z"/>
  </g>
  <circle class="cls-24" cx="53.29948" cy="6.92445" r="1.71414"/>
  <path class="cls-8" d="M17.031,106.16731H51.63728v7.59556a12.3042,12.3042,0,0,1-12.3042,12.3042h-9.9979a12.3042,12.3042,0,0,1-12.3042-12.3042h0v-7.59556Z"/>
  <path class="cls-9" d="M28.10956,117.56569v-4.73a1.42,1.42,0,0,0-1.42-1.42H24.24131a1.42,1.42,0,0,0-1.42,1.42v1.81855a25.84219,25.84219,0,0,0,2.32723,10.71753l.31687.69525h3.86982l-.66754-3.15962A25.84293,25.84293,0,0,1,28.10956,117.56569Z"/>
  <rect class="cls-8" x="17.03098" y="100.91891" width="34.60631" height="10.49681" rx="5.2484"/>
  <rect class="cls-5" x="18.66231" y="102.30266" width="31.34363" height="7.7293" rx="3.86465"/>
  <path class="cls-21" d="M46.1413,104.70282H22.527a3.85176,3.85176,0,0,0-3.6554,2.66455,3.85176,3.85176,0,0,0,3.6554,2.66455H46.1413a3.85162,3.85162,0,0,0,3.65533-2.66455A3.85162,3.85162,0,0,0,46.1413,104.70282Z"/>
  <rect class="cls-6" x="7.82603" y="123.45283" width="53.01619" height="3.36456"/>
  <line class="cls-28" x1="41.37834" y1="107.36737" x2="51.13003" y2="97.61568"/>
  <path class="cls-10" d="M27.63624,103.88673a2.28058,2.28058,0,0,0-2.28058,2.28057h4.56116A2.28058,2.28058,0,0,0,27.63624,103.88673Z"/>
  <rect class="cls-7" x="30.49469" y="107.3673" width="3.44394" height="1.25687" transform="translate(-12.05663 4.35758) rotate(-6.52115)"/>
  <path class="cls-24" d="M38.79732,107.18579l-3.02691.02184-.78464-1.6408a1.37007,1.37007,0,0,1,.64494-1.82708h0a1.37006,1.37006,0,0,1,1.82708.64491l0,0Z"/>
  <circle class="cls-7" cx="22.82127" cy="108.16912" r="0.58431"/>
  <circle class="cls-10" cx="46.8385" cy="107.20763" r="0.58431"/>
</svg>
